/* XPM */
static char * maximize_focused_prelight = {
"18 14 4 1", 
"@	c #FFFFFF", 
"+	c #000000", 
"=	c None", 
".	c None", 
"..................", 
"..................", 
"===@@@@@@@@@@@@===", 
"===@++++++++++@===", 
"===@++++++++++@===", 
"===@+@@@@@@@@+@===", 
"===@+@======@+@===", 
"===@+@======@+@===", 
"===@+@======@+@===", 
"===@+@======@+@===", 
"===@+@@@@@@@@+@===", 
"===@++++++++++@===", 
"===@@@@@@@@@@@@===", 
"==================", 
};