/* XPM */
static char * unmaximize_focused_pressed = {
"18 14 4 1", 
"@	c None", 
"+	c #000000", 
"=	c None", 
".	c None", 
"..................", 
"..................", 
"==================", 
"==================", 
"====@@@@@@@@@@====", 
"====@++++++++@====", 
"====@++++++++@====", 
"====@+@@@@@@+@====", 
"====@+@====@+@====", 
"====@+@====@+@====", 
"====@+@@@@@@+@====", 
"====@++++++++@====", 
"====@@@@@@@@@@====", 
"==================", 
};