/* XPM */
static char * minimize_unfocused = {
"18 14 4 1", 
"@	c None", 
"+	c #A1A1A1", 
"=	c None", 
".	c None", 
"..................", 
"..................", 
"==================", 
"==================", 
"==================", 
"==================", 
"==================", 
"==================", 
"==================", 
"===@@@@@@@@@@@@===", 
"===@++++++++++@===", 
"===@++++++++++@===", 
"===@@@@@@@@@@@@===", 
"==================", 
};