/* XPM */
static char * bottom_active = {
"9 4 3 1", 
"#	c #000000 s active_color_2", 
"%	c #000000 s active_color_2", 
"+	c #000000 s active_shadow_2", 
"#########", 
"%%%%%%%%%", 
"%%%%%%%%%", 
"+++++++++", 
};