/* XPM */
static char * close_inactive = {
"18 14 4 1", 
".	c None", 
"+	c #606060 s inactive_text_color", 
"@	c #000000 s inactive_color_2", 
"=	c #000000 s inactive_color_2", 
"..................", 
"..................", 
"==================", 
"=====@@====@@=====", 
"====@++@==@++@====", 
"====@+++@@+++@====", 
"=====@++++++@=====", 
"======@++++@======", 
"======@++++@======", 
"=====@++++++@=====", 
"====@+++@@+++@====", 
"====@++@==@++@====", 
"=====@@====@@=====", 
"==================", 
};