/* XPM */
static char * bottom_right_active = {
"2 3 3 1", 
".	c None", 
"+	c #000000", 
"%	c #3C3C3C", 
"%+", 
"%+", 
"+.", 
};