/* XPM */
static char * menu_pressed = {
"18 14 4 1", 
"@	c #000000", 
"+	c #FFFFFF", 
"=	c #3C3C3C", 
".	c None", 
"..................", 
"..................", 
"==================", 
"==================", 
"==================", 
"====@@@@@@@@@@====", 
"====@++++++++@====", 
"=====@++++++@=====", 
"======@++++@======", 
"=======@++@=======", 
"========@@========", 
"==================", 
"==================", 
"==================", 
};