/* XPM */
static char * title_1_inactive = {
"9 14 2 1", 
"+	c #000000", 
"%	c #3C3C3C", 
"+++++++++", 
"%%%%%%%%%", 
"%%%%%%%%%", 
"%%%%%%%%%", 
"%%%%%%%%%", 
"%%%%%%%%%", 
"%%%%%%%%%", 
"%%%%%%%%%", 
"%%%%%%%%%", 
"%%%%%%%%%", 
"%%%%%%%%%", 
"%%%%%%%%%", 
"%%%%%%%%%", 
"%%%%%%%%%", 
};