/* XPM */
static char * title_2_inactive = {
"9 14 2 1", 
"%	c #3C3C3C", 
"+	c #000000", 
"+++++++++", 
"%%%%%%%%%", 
"%%%%%%%%%", 
"%%%%%%%%%", 
"%%%%%%%%%", 
"%%%%%%%%%", 
"%%%%%%%%%", 
"%%%%%%%%%", 
"%%%%%%%%%", 
"%%%%%%%%%", 
"%%%%%%%%%", 
"%%%%%%%%%", 
"%%%%%%%%%", 
"%%%%%%%%%", 
};