/* XPM */
static char * top_right_inactive = {
"2 14 3 1", 
"+	c #000000", 
"%	c #3C3C3C", 
".	c None", 
"..", 
"+.", 
"%+", 
"%+", 
"%+", 
"%+", 
"%+", 
"%+", 
"%+", 
"%+", 
"%+", 
"%+", 
"%+", 
"%+", 
};